<?xml version="1.0" standalone="no"?>
<!DOCTYPE svg PUBLIC "-//W3C//DTD SVG 20010904//EN"
 "http://www.w3.org/TR/2001/REC-SVG-20010904/DTD/svg10.dtd">
<svg version="1.0" xmlns="http://www.w3.org/2000/svg" width="133" height="31" viewBox="0 0 133 31">

<g transform="translate(0.000000,773.000000) scale(0.100000,-0.100000)"
fill="#000000" stroke="none">
<path d="M11395 6790 c-16 -4 -50 -8 -74 -9 -24 0 -62 -6 -85 -12 -162 -43
-156 -41 -251 -85 -190 -87 -393 -252 -540 -439 -22 -27 -43 -51 -47 -53 -5
-2 -8 -10 -8 -17 0 -7 -4 -15 -9 -17 -5 -1 -43 -56 -85 -120 l-76 -118 -61 0
c-68 0 -152 -20 -217 -52 -25 -13 -46 -18 -50 -12 -5 5 -51 63 -103 129 -51
66 -98 125 -104 131 -5 6 -26 30 -45 54 -128 156 -322 350 -491 492 -76 64
-183 118 -234 118 -42 0 -118 -25 -149 -50 -30 -23 -99 -93 -116 -116 -41 -56
-110 -191 -110 -214 0 -11 -4 -20 -10 -20 -5 0 -10 -11 -10 -24 0 -14 -4 -28
-10 -31 -5 -3 -10 -19 -10 -35 0 -16 -4 -31 -9 -34 -5 -3 -11 -23 -14 -43 -2
-21 -12 -56 -20 -78 -17 -44 1 -38 -187 -65 -47 -7 -110 -16 -140 -21 -131
-20 -207 -31 -235 -34 -16 -2 -61 -8 -98 -13 -68 -11 -97 -8 -97 9 0 13 -27
44 -110 129 -143 145 -326 240 -464 240 -64 0 -143 -22 -197 -56 -51 -32 -120
-113 -152 -180 -16 -33 -33 -67 -38 -76 -5 -10 -9 -29 -9 -42 0 -14 -4 -27 -9
-30 -5 -3 -11 -23 -14 -43 -3 -21 -11 -63 -17 -93 -6 -30 -15 -80 -20 -110 -5
-30 -14 -72 -20 -93 -6 -20 -8 -42 -5 -47 3 -5 2 -18 -4 -28 -9 -16 -21 -82
-42 -229 -5 -35 -14 -93 -19 -130 -23 -150 -31 -211 -36 -270 -3 -34 -11 -66
-17 -71 -8 -6 -73 -7 -172 -2 -220 12 -328 4 -355 -25 -16 -17 -21 -33 -18
-61 5 -61 24 -66 276 -69 162 -3 218 -7 227 -17 9 -10 10 -31 3 -83 -5 -38
-12 -99 -16 -135 l-7 -65 -70 -7 c-59 -6 -170 -21 -225 -32 -78 -15 -98 -21
-118 -34 -13 -8 -29 -27 -37 -42 -12 -24 -12 -30 4 -57 29 -47 66 -57 137 -37
72 20 140 33 218 41 l58 6 -6 -74 c-3 -41 -10 -108 -16 -149 -5 -41 -14 -111
-19 -155 -6 -44 -15 -98 -20 -119 -8 -32 -6 -46 7 -68 29 -49 99 -60 148 -23
28 21 32 31 38 92 4 37 12 97 17 133 17 125 29 215 36 280 l8 65 50 -3 c28 -2
54 -8 60 -13 5 -5 16 -9 25 -9 8 0 46 -16 83 -35 91 -47 156 -49 186 -6 26 36
26 46 2 80 -16 22 -63 50 -172 101 -15 8 -136 37 -174 42 -18 3 -20 11 -19 73
0 39 7 98 14 132 l12 62 32 -6 c17 -4 53 -15 81 -26 27 -10 60 -21 73 -24 12
-3 22 -8 22 -12 0 -13 63 -33 103 -33 32 1 47 7 65 27 45 52 23 93 -77 141
-42 20 -84 40 -93 45 -10 5 -25 9 -33 9 -8 0 -23 4 -33 9 -14 8 -65 22 -82 23
-3 0 -13 4 -23 10 -14 7 -17 16 -13 36 4 15 11 59 17 97 5 39 14 99 19 135 5
36 14 94 19 130 5 36 13 82 19 102 5 20 8 39 5 41 -2 3 3 33 12 67 9 34 14 64
12 67 -3 2 -1 21 4 41 9 34 16 73 40 207 4 28 13 75 19 105 6 30 13 70 17 88
3 18 9 35 14 38 5 3 9 14 9 24 0 21 44 105 75 143 46 56 139 85 193 59 9 -5
39 -20 67 -33 101 -49 270 -206 308 -288 32 -66 56 -75 164 -61 145 19 207 28
413 60 30 5 98 13 150 19 52 6 114 16 137 21 23 6 59 10 80 10 21 1 53 9 72
18 28 14 37 26 48 67 16 62 33 138 40 188 3 20 9 40 14 43 5 3 9 16 9 30 0 13
4 32 9 42 5 9 14 31 21 47 11 28 21 47 53 108 24 44 61 87 99 113 48 33 56 30
178 -70 152 -125 418 -411 577 -622 12 -16 31 -40 42 -54 11 -14 36 -47 56
-73 l36 -49 -32 -61 c-52 -101 -61 -120 -80 -182 -7 -22 -17 -44 -21 -50 -4
-5 -8 -19 -8 -31 0 -13 -4 -25 -9 -28 -5 -3 -11 -18 -14 -33 -2 -16 -10 -44
-17 -63 -23 -63 -27 -74 -39 -111 -6 -19 -11 -45 -11 -57 0 -11 -4 -23 -9 -26
-5 -3 -11 -20 -14 -38 -3 -18 -11 -53 -17 -78 -6 -25 -14 -60 -17 -78 -3 -18
-9 -35 -14 -38 -5 -3 -9 -21 -9 -40 0 -20 -5 -44 -11 -55 -6 -11 -15 -44 -20
-72 -6 -29 -14 -74 -19 -102 -42 -220 -50 -294 -56 -504 -4 -125 -2 -187 5
-194 6 -6 11 -24 11 -39 0 -15 5 -28 10 -28 6 0 10 -7 10 -16 0 -51 119 -160
210 -193 19 -7 44 -16 55 -21 54 -20 125 -30 224 -30 117 0 234 18 316 50 153
59 222 96 291 160 44 40 114 132 114 149 0 6 5 11 10 11 6 0 10 7 10 15 0 8 4
23 9 33 28 56 35 105 34 255 -1 87 -5 163 -11 170 -5 6 -12 28 -16 47 -3 19
-8 52 -12 73 -3 20 -10 40 -15 43 -5 3 -9 15 -9 28 0 12 -7 31 -15 42 -8 10
-15 27 -15 37 0 9 -4 25 -9 35 -12 23 -43 98 -61 147 -17 45 -148 305 -189
375 -40 69 -55 94 -93 161 -7 13 -15 26 -18 29 -14 14 -100 151 -100 159 0 5
-3 11 -8 13 -4 2 -25 27 -46 57 l-38 54 21 17 c37 27 110 43 205 45 113 2 138
13 171 79 31 62 37 71 100 164 28 41 55 82 60 92 6 9 17 24 25 32 8 9 30 34
47 56 80 98 269 263 353 306 230 121 311 140 600 140 178 0 298 -15 430 -53
19 -5 60 -17 90 -25 77 -22 250 -110 317 -162 125 -97 208 -191 250 -284 25
-56 42 -97 58 -140 9 -25 21 -54 26 -65 4 -11 16 -44 25 -73 9 -29 20 -55 25
-58 5 -3 9 -16 9 -29 0 -13 5 -27 10 -30 6 -3 10 -21 10 -40 0 -19 5 -37 10
-40 6 -3 10 -19 10 -34 0 -15 5 -32 12 -39 25 -25 -9 -39 -110 -46 -101 -7
-189 -16 -357 -35 -55 -7 -116 -14 -135 -15 -19 -2 -71 -9 -115 -15 -44 -6
-109 -15 -145 -20 -111 -15 -140 -34 -140 -92 0 -30 6 -41 28 -56 31 -21 71
-21 207 -3 50 7 119 16 155 21 36 4 106 13 155 19 50 7 103 13 119 13 l28 2
-1 -177 c-2 -115 2 -178 8 -183 6 -3 11 -19 11 -35 0 -16 5 -32 10 -35 6 -3
10 -13 10 -21 0 -9 15 -39 34 -67 64 -95 111 -134 226 -186 25 -10 87 -27 143
-38 27 -5 28 -8 24 -42 -12 -80 -39 -187 -67 -256 -15 -37 -84 -180 -90 -185
-3 -3 -17 -21 -30 -40 -12 -19 -46 -59 -74 -87 l-50 -53 -135 0 c-128 0 -274
19 -313 40 -10 6 -23 10 -29 10 -25 0 -117 55 -197 117 -76 59 -271 246 -328
313 -164 196 -274 356 -274 400 0 13 16 26 52 42 116 52 113 49 116 100 3 39
-1 49 -20 62 -37 26 -100 20 -182 -19 -109 -52 -208 -129 -280 -218 -71 -87
-48 -167 49 -167 43 0 76 19 88 53 3 9 13 17 22 17 9 0 18 -8 22 -17 22 -60
227 -323 363 -467 88 -93 276 -256 323 -281 17 -9 57 -29 87 -45 30 -16 63
-29 72 -29 9 -1 20 -5 23 -11 3 -5 14 -10 24 -10 18 0 125 -52 224 -109 63
-36 177 -144 177 -167 0 -8 5 -14 10 -14 6 0 10 -7 10 -15 0 -8 4 -23 9 -33 5
-9 17 -34 27 -55 63 -127 203 -206 374 -211 156 -5 256 48 321 170 30 55 32
67 32 192 1 96 -7 160 -21 188 -5 11 -16 33 -23 49 -8 17 -22 39 -31 49 -10
11 -18 26 -18 33 0 7 -4 13 -10 13 -28 0 -2 29 58 65 37 22 99 71 138 110 73
73 154 174 154 193 0 5 3 12 8 14 18 8 78 118 127 233 9 22 22 51 29 65 7 14
23 59 35 100 13 41 27 83 32 92 5 10 9 30 9 46 0 15 4 32 9 38 5 5 12 27 15
49 3 22 10 67 15 100 34 226 34 231 22 286 -7 30 -15 66 -18 82 -3 15 -9 27
-14 27 -5 0 -9 7 -9 16 0 20 -53 68 -98 89 -97 47 -292 58 -574 33 -133 -11
-139 -11 -153 8 -8 10 -15 33 -15 51 0 17 -4 35 -10 38 -5 3 -10 19 -10 35 0
16 -4 32 -10 35 -5 3 -10 17 -10 31 0 13 -4 32 -9 42 -5 9 -14 35 -21 57 -6
22 -23 69 -37 105 -14 36 -29 74 -33 85 -10 25 -37 89 -58 135 -19 42 -64 114
-74 118 -5 2 -8 8 -8 14 0 31 -161 181 -275 255 -49 32 -210 113 -225 113 -6
0 -18 4 -28 9 -83 42 -230 79 -407 103 -95 12 -393 18 -430 8z m-1412 -1385
c48 -74 87 -140 87 -145 0 -6 3 -10 8 -10 4 0 14 -15 21 -32 8 -18 24 -46 35
-63 20 -29 170 -327 186 -370 12 -33 32 -79 41 -97 5 -10 9 -27 9 -37 0 -11 5
-23 10 -26 6 -3 10 -16 10 -29 0 -12 4 -26 9 -31 6 -6 12 -22 15 -37 2 -15 10
-45 16 -65 7 -21 16 -52 21 -69 12 -42 12 -321 -1 -329 -5 -3 -10 -15 -10 -25
0 -24 -34 -83 -77 -134 -35 -42 -97 -87 -153 -112 -19 -9 -43 -20 -52 -25 -10
-5 -26 -9 -36 -9 -10 0 -22 -4 -27 -9 -6 -6 -60 -15 -122 -22 -124 -13 -249
-2 -304 27 -45 23 -119 94 -119 113 0 9 -5 22 -10 27 -13 13 -7 348 9 449 6
39 14 97 19 130 5 33 14 73 20 88 7 15 11 38 11 50 0 21 12 75 32 143 5 17 9
42 9 57 0 14 5 29 10 32 6 3 10 21 10 40 0 19 5 37 10 40 6 3 10 21 10 40 0
19 5 37 10 40 6 3 10 19 10 35 0 16 5 32 10 35 6 3 10 17 10 29 0 13 7 37 15
52 8 16 15 39 15 51 0 12 5 25 10 28 6 3 10 17 10 30 0 13 5 27 10 30 6 3 10
17 10 30 0 13 5 27 10 30 6 3 10 17 10 30 0 13 5 27 10 30 6 3 10 17 10 30 0
13 5 27 10 30 6 3 10 14 10 24 0 19 18 41 35 41 5 0 49 -61 98 -135z m3587
-842 c0 -14 -57 -122 -99 -188 -60 -96 -113 -156 -191 -220 -74 -61 -239 -150
-252 -137 -5 5 3 30 18 58 15 27 36 67 47 89 11 22 23 48 28 57 5 10 9 27 9
37 0 11 5 23 10 26 6 3 10 17 10 30 0 13 5 27 10 30 6 3 10 21 10 40 0 19 4
36 9 39 4 3 11 25 14 48 2 24 10 55 16 71 l11 27 175 0 c96 0 175 -3 175 -7z
m-473 -728 c55 -39 92 -138 93 -249 0 -89 -15 -137 -55 -176 -31 -30 -37 -32
-106 -32 -79 1 -137 21 -173 61 -21 23 -76 130 -76 149 0 6 -3 12 -8 12 -4 0
-13 13 -20 28 -7 16 -33 50 -58 76 -25 27 -42 52 -37 56 4 4 33 11 64 14 52 7
57 5 85 -22 40 -40 64 -70 64 -82 0 -6 3 -10 8 -10 10 0 27 -42 48 -118 13
-50 23 -66 45 -77 39 -21 82 -19 113 6 22 18 26 28 26 75 0 45 -8 72 -46 149
-25 52 -50 95 -55 95 -5 0 -9 11 -9 24 0 24 2 25 65 35 6 0 20 -6 32 -14z"/>
<path d="M12152 6105 c-81 -38 -122 -114 -122 -230 0 -145 74 -245 181 -245
33 0 51 7 85 35 47 39 64 70 84 154 10 43 10 64 0 110 -7 31 -17 60 -22 66 -4
5 -8 17 -8 26 0 26 -69 86 -111 97 -32 8 -46 6 -87 -13z"/>
<path d="M11289 6097 c-44 -21 -73 -50 -99 -101 -22 -43 -25 -62 -24 -145 1
-82 4 -102 25 -136 52 -88 139 -128 202 -92 35 19 77 60 77 74 0 7 5 13 10 13
6 0 10 9 10 19 0 11 5 23 10 26 6 3 10 50 10 106 0 59 -4 99 -10 99 -5 0 -10
7 -10 15 0 31 -46 87 -92 111 -52 26 -70 28 -109 11z"/>
<path d="M9052 5623 c-25 -21 -62 -112 -62 -152 0 -36 26 -122 53 -179 39 -81
123 -126 167 -89 21 17 40 53 40 75 0 10 5 23 11 29 16 16 -3 177 -22 189 -5
3 -9 12 -9 20 0 27 -51 92 -85 108 -43 21 -68 20 -93 -1z"/>
<path d="M8515 5506 c-58 -22 -81 -72 -50 -112 8 -10 15 -27 15 -36 0 -10 5
-18 10 -18 6 0 10 -13 10 -29 0 -17 5 -33 10 -36 6 -3 10 -34 10 -69 0 -78
-23 -106 -87 -106 -48 0 -98 31 -164 101 -40 43 -50 49 -86 49 -55 0 -93 -37
-93 -91 0 -32 -8 -47 -43 -84 -39 -41 -48 -45 -90 -45 -40 0 -49 4 -64 27 -23
35 -42 122 -42 199 -1 70 -21 99 -75 109 -73 14 -123 -41 -112 -122 4 -26 10
-72 13 -101 3 -29 9 -55 14 -58 5 -3 9 -16 9 -30 0 -13 4 -24 9 -24 5 0 12
-11 15 -24 9 -37 73 -102 122 -125 93 -44 237 -15 330 67 27 23 54 42 61 42 7
0 29 -10 50 -22 33 -20 52 -23 139 -23 69 0 110 5 130 15 126 63 163 151 139
328 -4 29 -12 55 -16 58 -5 3 -9 16 -9 29 0 13 -4 27 -10 30 -5 3 -10 14 -10
23 -1 23 -39 65 -73 80 -15 7 -29 12 -30 11 -1 -1 -15 -6 -32 -13z"/>
<path d="M7170 5367 c-57 -60 -66 -196 -19 -289 5 -10 9 -25 9 -33 0 -8 5 -15
10 -15 6 0 10 -6 10 -14 0 -8 16 -28 35 -45 75 -65 157 -23 171 86 8 70 -5
176 -26 197 -5 5 -10 18 -10 28 0 10 -4 18 -10 18 -5 0 -10 6 -10 14 0 8 -17
28 -37 45 -46 38 -91 41 -123 8z"/>
<path d="M12325 4681 c-91 -41 -58 -151 45 -151 39 0 90 47 90 82 0 50 -83 92
-135 69z"/>
<path d="M12572 4437 c-50 -53 -7 -127 75 -127 36 0 46 5 68 35 30 38 28 63
-8 95 -31 29 -106 28 -135 -3z"/>
<path d="M12219 4367 c-25 -17 -35 -31 -37 -55 -4 -40 10 -58 55 -77 29 -12
40 -13 67 -1 17 7 40 25 50 40 16 25 16 30 2 60 -15 32 -51 56 -85 56 -10 0
-33 -10 -52 -23z"/>
<path d="M6580 2395 l0 -625 60 0 60 0 0 268 c0 324 5 348 84 428 61 61 123
84 222 84 111 0 183 -39 231 -124 l28 -51 3 -302 3 -303 60 0 60 0 -3 313 c-3
298 -4 315 -26 368 -32 81 -88 140 -164 175 -57 26 -73 28 -174 29 -107 0
-112 -1 -186 -38 -42 -20 -90 -53 -107 -72 l-31 -35 -2 252 -3 253 -57 3 -58
3 0 -626z"/>
<path d="M7750 3013 c-63 -24 -82 -104 -34 -142 59 -46 144 -10 144 62 0 52
-63 98 -110 80z"/>
<path d="M11450 2395 l0 -625 55 0 55 0 0 82 0 81 49 -51 c85 -89 197 -129
330 -119 188 15 330 126 383 300 17 56 19 86 16 170 -6 120 -29 191 -88 266
-155 195 -471 214 -641 39 l-39 -40 -2 258 -3 259 -57 3 -58 3 0 -626z m573
135 c61 -23 132 -91 168 -160 21 -40 24 -59 24 -160 0 -106 -2 -119 -27 -166
-34 -65 -115 -138 -175 -158 -67 -23 -180 -21 -247 5 -67 25 -133 86 -166 154
-29 60 -40 217 -20 281 19 63 71 132 127 171 93 64 202 75 316 33z"/>
<path d="M5917 2843 c-4 -3 -7 -48 -7 -100 l0 -93 -75 0 -75 0 0 -50 0 -50 75
0 75 0 0 -278 c0 -303 8 -367 55 -428 67 -88 254 -110 364 -43 l31 19 -20 40
c-11 22 -22 40 -24 40 -1 0 -18 -8 -37 -17 -47 -25 -145 -24 -182 1 -59 40
-62 53 -65 374 l-3 292 135 0 136 0 0 50 0 50 -135 0 -135 0 0 100 0 100 -53
0 c-30 0 -57 -3 -60 -7z"/>
<path d="M14797 2844 c-4 -4 -7 -49 -7 -101 l0 -93 -77 0 -78 0 1 -47 1 -48
77 -3 76 -3 0 -282 c1 -298 6 -349 45 -409 66 -100 255 -129 374 -57 l31 19
-20 41 c-16 31 -25 39 -38 33 -105 -45 -174 -43 -223 5 -44 44 -49 84 -49 379
l0 272 135 0 135 0 0 50 0 50 -135 0 -134 0 -3 98 -3 97 -50 3 c-28 2 -54 0
-58 -4z"/>
<path d="M17637 2844 c-4 -4 -7 -49 -7 -101 l0 -93 -81 0 -80 0 3 -47 3 -48
78 -3 77 -3 0 -288 c0 -313 5 -351 55 -417 14 -19 44 -43 66 -55 80 -40 221
-35 298 12 l31 19 -20 41 c-16 31 -25 39 -38 33 -93 -39 -158 -42 -208 -9 -14
9 -34 35 -45 58 -17 38 -19 69 -19 325 l0 282 135 0 135 0 0 50 0 50 -135 0
-134 0 -3 98 -3 97 -50 3 c-28 2 -54 0 -58 -4z"/>
<path d="M1363 2649 c-101 -19 -178 -72 -213 -145 -18 -36 -21 -58 -18 -113 7
-136 78 -190 313 -234 204 -39 255 -69 255 -146 0 -95 -78 -144 -230 -145
-107 0 -185 19 -267 65 l-53 29 -25 -40 c-14 -22 -25 -44 -25 -49 0 -17 80
-58 160 -83 98 -30 296 -32 375 -4 145 53 211 166 174 299 -23 82 -106 131
-289 168 -146 29 -209 50 -241 80 -25 23 -29 35 -29 77 0 39 6 57 25 80 68 81
256 93 408 25 31 -14 59 -24 61 -22 2 2 13 23 25 47 l22 43 -53 24 c-104 47
-266 66 -375 44z"/>
<path d="M2269 2642 c-203 -53 -330 -239 -316 -462 9 -143 65 -251 172 -332
129 -99 327 -115 485 -40 67 31 158 120 189 185 52 107 65 231 35 342 -62 240
-308 374 -565 307z m278 -123 c135 -65 203 -213 173 -379 -21 -117 -74 -191
-172 -240 -54 -26 -71 -30 -148 -30 -77 0 -94 4 -148 30 -71 36 -115 82 -151
160 -22 47 -26 69 -26 150 0 83 4 103 28 155 34 73 76 119 139 151 103 52 201
53 305 3z"/>
<path d="M3434 2650 c-64 -13 -136 -54 -182 -104 l-42 -46 0 75 0 75 -60 0
-60 0 0 -440 0 -440 59 0 59 0 4 278 c5 321 10 345 88 423 54 54 120 79 208
79 112 0 191 -48 233 -142 23 -52 24 -60 24 -345 l0 -293 58 0 57 0 0 244 c0
134 5 267 10 297 28 147 118 227 266 237 121 8 199 -32 250 -128 17 -32 19
-65 22 -342 l3 -308 60 0 60 0 -3 323 -3 322 -26 56 c-46 97 -120 155 -227
178 -152 32 -297 -10 -396 -114 l-50 -52 -30 46 c-69 102 -226 152 -382 121z"/>
<path d="M5123 2650 c-110 -23 -222 -108 -277 -209 -39 -72 -56 -142 -56 -232
0 -201 112 -361 300 -425 81 -28 254 -26 334 4 58 21 166 94 166 112 0 5 -14
25 -31 45 l-31 35 -38 -34 c-84 -76 -254 -100 -377 -54 -103 38 -203 165 -203
256 l0 22 371 0 372 0 -6 78 c-12 180 -113 325 -264 382 -65 25 -193 34 -260
20z m201 -110 c52 -16 76 -31 115 -70 50 -50 91 -134 91 -185 l0 -25 -310 0
-310 0 0 24 c0 71 68 182 136 222 96 57 173 66 278 34z"/>
<path d="M8514 2650 c-66 -14 -136 -51 -186 -102 l-48 -47 0 74 0 75 -55 0
-55 0 0 -440 0 -440 54 0 54 0 4 273 c4 252 6 276 27 329 43 112 150 178 287
178 114 0 188 -41 232 -130 l27 -55 3 -297 3 -298 60 0 60 0 -3 313 c-3 294
-5 315 -25 367 -29 70 -72 123 -130 157 -80 47 -203 64 -309 43z"/>
<path d="M9530 2642 c-125 -33 -221 -109 -272 -219 -79 -167 -50 -358 73 -488
123 -130 339 -170 513 -95 26 11 72 43 103 72 l56 53 -5 -115 c-6 -126 -18
-167 -68 -223 -90 -103 -334 -116 -509 -27 -33 16 -62 34 -66 40 -13 20 -35 9
-62 -31 l-27 -41 25 -19 c107 -85 312 -132 480 -109 140 19 231 70 287 163 57
94 62 142 62 620 l0 427 -55 0 -55 0 0 -75 c0 -41 -2 -75 -5 -75 -3 0 -21 17
-39 38 -94 103 -274 146 -436 104z m205 -93 c146 -27 239 -119 266 -263 18
-101 -15 -209 -86 -281 -60 -59 -128 -88 -222 -93 -151 -8 -260 49 -322 170
-29 56 -33 76 -34 139 0 44 7 95 17 125 32 98 125 177 236 200 71 16 76 16
145 3z"/>
<path d="M10630 2644 c-72 -15 -208 -78 -217 -100 -6 -15 33 -84 48 -84 5 0
27 11 47 25 108 72 282 92 377 44 31 -16 61 -42 80 -68 25 -36 30 -54 33 -117
l4 -74 -158 0 c-88 0 -188 -5 -223 -10 -163 -27 -254 -131 -238 -272 18 -149
162 -239 361 -225 90 6 188 47 230 97 13 17 27 30 30 30 3 0 6 -27 6 -60 l0
-60 55 0 55 0 0 313 c0 345 -4 379 -59 455 -75 103 -248 146 -431 106z m370
-544 c0 -68 -4 -86 -25 -119 -52 -84 -134 -124 -251 -125 -65 0 -89 4 -130 25
-87 43 -118 127 -76 208 38 75 85 88 320 90 l162 1 0 -80z"/>
<path d="M12828 2644 c-79 -19 -126 -44 -190 -103 -99 -90 -143 -206 -136
-355 6 -107 30 -177 86 -251 134 -176 379 -226 585 -118 210 110 288 392 170
615 -94 179 -301 264 -515 212z m269 -125 c118 -57 176 -159 176 -309 0 -149
-58 -251 -175 -309 -54 -27 -71 -31 -148 -31 -77 0 -94 4 -148 30 -108 54
-171 155 -180 285 -5 75 14 163 46 214 91 148 269 198 429 120z"/>
<path d="M15805 2646 c-76 -19 -135 -53 -187 -108 l-48 -50 0 81 0 81 -60 0
-60 0 2 -602 3 -603 58 -3 57 -3 0 241 c0 132 2 240 5 240 2 0 25 -21 50 -46
25 -25 76 -60 113 -77 62 -29 75 -32 172 -31 120 0 173 15 259 72 64 42 132
131 158 205 14 39 18 82 18 172 0 118 -1 121 -37 198 -24 49 -55 95 -86 125
-105 102 -268 145 -417 108z m155 -96 c109 -21 198 -90 243 -188 18 -38 22
-66 22 -152 0 -95 -3 -110 -28 -162 -35 -72 -111 -141 -178 -163 -81 -27 -208
-18 -278 20 -107 59 -163 160 -165 300 0 98 21 167 73 233 42 52 118 98 183
111 60 12 69 12 128 1z"/>
<path d="M16820 2645 c-121 -34 -235 -137 -282 -255 -19 -46 -23 -74 -23 -180
0 -120 1 -128 32 -193 91 -192 297 -290 523 -247 76 14 162 56 204 99 l36 37
-31 37 -31 37 -41 -35 c-68 -58 -135 -78 -252 -73 -119 5 -175 29 -244 103
-45 49 -65 87 -80 154 l-9 41 372 2 371 3 -3 73 c-6 175 -108 324 -265 384
-70 27 -203 33 -277 13z m248 -115 c92 -40 182 -162 182 -247 l0 -23 -310 0
-310 0 0 23 c0 70 57 172 120 213 101 67 213 79 318 34z"/>
<path d="M18425 2647 c-163 -43 -244 -156 -214 -296 9 -42 21 -63 54 -96 50
-50 88 -64 283 -104 159 -33 205 -54 222 -105 21 -65 -8 -124 -78 -157 -38
-19 -63 -23 -142 -23 -104 0 -180 18 -265 62 -27 15 -53 28 -57 30 -11 5 -50
-78 -44 -94 7 -18 87 -58 161 -80 45 -14 92 -18 190 -18 112 0 138 3 189 23
82 33 142 90 161 154 8 28 15 60 15 71 0 44 -23 99 -56 136 -44 49 -108 74
-274 107 -200 39 -245 68 -245 155 0 45 4 53 41 88 31 29 55 41 100 50 78 16
182 6 258 -26 96 -40 92 -41 116 6 28 54 20 63 -84 96 -98 31 -253 41 -331 21z"/>
<path d="M7710 2210 l0 -440 60 0 60 0 0 440 0 440 -60 0 -60 0 0 -440z"/>
<path d="M13630 2383 c0 -344 11 -407 83 -506 71 -95 264 -143 408 -101 67 19
142 66 170 106 29 41 42 24 37 -51 l-3 -61 58 0 57 0 0 440 0 440 -59 0 -60 0
-3 -282 c-3 -271 -4 -285 -26 -333 -49 -106 -124 -156 -245 -163 -99 -6 -155
10 -211 59 -75 66 -79 89 -84 427 l-4 292 -59 0 -59 0 0 -267z"/>
</g>
</svg>
